<!-- Generated by IcoMoon.io -->
<svg version="1.1" xmlns="http://www.w3.org/2000/svg" width="8" height="20" viewBox="0 0 8 20">
<title>angle-left</title>
<path fill="#0f2069" d="M6.998 6.071c0 0.089-0.045 0.19-0.112 0.257l-4.386 4.386 4.386 4.386c0.067 0.067 0.112 0.167 0.112 0.257s-0.045 0.19-0.112 0.257l-0.558 0.558c-0.067 0.067-0.167 0.112-0.257 0.112s-0.19-0.045-0.257-0.112l-5.201-5.201c-0.067-0.067-0.112-0.167-0.112-0.257s0.045-0.19 0.112-0.257l5.201-5.201c0.067-0.067 0.167-0.112 0.257-0.112s0.19 0.045 0.257 0.112l0.558 0.558c0.067 0.067 0.112 0.156 0.112 0.257z"></path>
</svg>
